<svg width="149" height="38" viewBox="0 0 149 38" fill="none" xmlns="http://www.w3.org/2000/svg">
<g clip-path="url(#clip0_2707_28721)">
<path d="M20.6308 35.9882C21.1301 34.7549 21.5224 33.4808 21.8032 32.18C21.9885 31.357 22.0747 30.5148 22.06 29.6712C22.048 29.3971 22.0024 29.1255 21.9243 28.8626C21.8991 28.7044 21.843 28.5528 21.7592 28.4164C21.6755 28.28 21.5658 28.1615 21.4363 28.0676C21.3068 27.9737 21.1601 27.9064 21.0046 27.8693C20.849 27.8323 20.6878 27.8263 20.5299 27.8517C20.4786 27.8605 20.4277 27.8722 20.3777 27.8866C19.8511 27.9825 19.3704 28.2484 19.009 28.6439C18.8132 28.8509 18.6858 29.1135 18.6445 29.3957C18.6031 29.6779 18.6497 29.9661 18.7778 30.2208C19.1646 31.1047 19.483 32.0172 19.73 32.9501C19.9118 33.6601 19.9738 34.3956 19.9135 35.1262C19.8972 35.6419 19.6964 36.1345 19.3479 36.5144C18.9994 36.8942 18.5262 37.136 18.0146 37.1957C15.671 37.6016 13.2592 37.2217 11.153 36.115C10.3701 35.7049 9.73833 35.0552 9.34953 34.2605C9.1684 33.9775 8.95063 33.7198 8.7019 33.4941C8.12897 32.8596 7.65292 32.1436 7.28921 31.3695C7.00224 30.8315 6.88823 30.2179 6.96278 29.6125C7.03733 29.0072 7.2968 28.4397 7.70568 27.9877C7.9717 27.6698 8.25608 27.3647 8.53494 27.0596C9.08534 26.4806 9.04865 26.0414 8.4267 25.558C8.13243 25.3393 7.79242 25.1903 7.43231 25.1224C7.30607 25.086 7.17388 25.075 7.04336 25.0899C6.91284 25.1049 6.78656 25.1456 6.6718 25.2097C6.55704 25.2737 6.45606 25.3599 6.37468 25.4632C6.29329 25.5665 6.23311 25.6849 6.19759 25.8116C6.17933 25.8714 6.16764 25.9331 6.16273 25.9954C6.02498 26.6792 6.00327 27.3813 6.09852 28.0723C6.22782 28.9534 6.41164 29.8256 6.64891 30.6839C6.66788 30.7179 6.67783 30.7562 6.67783 30.7951C6.67783 30.8341 6.66788 30.8723 6.64891 30.9063C6.21043 30.1509 5.74443 29.4066 5.32062 28.6714C4.68635 27.6395 4.14072 26.5556 3.68961 25.4312C3.49735 24.9742 3.3898 24.4859 3.37221 23.9903C3.35735 23.7102 3.43427 23.4329 3.59126 23.2006C3.74825 22.9684 3.97671 22.7939 4.24184 22.7037C4.57208 22.5732 4.92066 22.4813 5.25457 22.36C6.01045 22.0899 6.19759 21.6249 5.83616 20.9062C5.64321 20.5212 5.3414 20.2016 4.96837 19.9873C4.81412 19.8606 4.61593 19.8004 4.41741 19.82C4.21889 19.8397 4.03628 19.9375 3.90977 20.092C3.87351 20.1376 3.84214 20.1869 3.8162 20.2391C3.40797 20.9078 3.16225 21.6633 3.09885 22.4446C3.07316 22.6284 3.0383 22.8011 2.99427 23.0309C2.85277 22.8364 2.75797 22.6119 2.71724 22.3747C2.09529 20.41 1.43298 18.4563 0.977983 16.4438C0.891318 16.0793 0.859167 15.704 0.882581 15.33C0.874209 15.1817 0.923052 15.0359 1.01901 14.9226C1.11496 14.8094 1.25069 14.7375 1.39812 14.7217C1.50297 14.7116 1.60853 14.7313 1.70267 14.7786C2.09603 14.9401 2.47424 15.1363 2.83282 15.3649C3.39168 15.6773 4.05106 15.7559 4.66748 15.5836C4.77944 15.5604 4.88574 15.5154 4.98029 15.451C5.07483 15.3866 5.15578 15.3041 5.21849 15.2084C5.2812 15.1126 5.32444 15.0054 5.34574 14.8929C5.36705 14.7803 5.36599 14.6647 5.34264 14.5526C5.33346 14.5158 5.32429 14.4791 5.31145 14.4423C4.98604 13.361 4.26969 12.4402 3.3025 11.86C3.08979 11.6994 2.82213 11.6298 2.55829 11.6667C2.29445 11.7036 2.056 11.8438 1.89531 12.0567L1.85862 12.1082C1.4233 12.6342 1.12456 13.2599 0.988991 13.9295C0.928447 14.1721 0.864234 14.4166 0.77617 14.7474C0.554177 13.9295 0.341356 13.1925 0.225773 12.4445C-0.0801369 11.0423 -0.0701087 9.58939 0.255127 8.19156C0.357061 7.77743 0.522958 7.38179 0.746816 7.01897C1.08003 6.43022 1.6245 5.99065 2.26959 5.78957C2.91468 5.5885 3.61199 5.64101 4.21983 5.93644C5.35978 6.44441 6.3591 7.22283 7.13143 8.20442C8.13171 9.4567 9.00503 10.8056 9.73848 12.2313C11.4777 15.2786 13.2243 18.3515 15.0021 21.465C15.1856 21.2132 15.3489 21 15.5066 20.7776C19.0402 15.7656 22.6031 10.7591 26.1146 5.71773C27.2263 4.04256 28.6156 2.57002 30.2224 1.36371C31.0693 0.698335 32.0657 0.250368 33.1249 0.0587957C33.8983 -0.0894737 34.6992 0.049681 35.3776 0.450218C36.056 0.850755 36.5655 1.48522 36.8107 2.23488C37.1589 3.20201 37.3063 4.23021 37.2437 5.25641C37.1831 7.35163 36.5318 9.28328 35.798 11.2112C35.798 11.237 35.7576 11.259 35.7154 11.3031C35.6127 10.5241 35.4427 9.75538 35.2072 9.00575C35.0602 8.606 34.8482 8.23338 34.5798 7.90301C34.4007 7.65741 34.139 7.48493 33.843 7.41738C33.547 7.34983 33.2365 7.39175 32.9689 7.53542C31.843 8.0885 30.9199 8.98308 30.3307 10.092C29.639 11.3491 30.3564 11.963 31.4645 12.1376C32.0921 12.2149 32.7286 12.111 33.2992 11.838C33.6814 11.642 34.0783 11.476 34.4862 11.3417C35.165 11.1579 35.5686 11.5016 35.5209 12.2111C35.4575 12.8206 35.3112 13.4185 35.0861 13.9883C34.4073 15.9898 33.5744 17.938 32.7341 19.8844C32.5222 20.4058 32.284 20.9162 32.0204 21.4135C31.969 20.7647 31.9379 20.1067 31.8608 19.4672C31.808 18.8512 31.616 18.2554 31.2994 17.7248C31.2431 17.6162 31.1659 17.5197 31.0723 17.441C30.9787 17.3623 30.8705 17.3029 30.7539 17.2662C30.6373 17.2294 30.5146 17.2162 30.3929 17.227C30.2711 17.2379 30.1527 17.2728 30.0445 17.3297L29.9913 17.3591C29.6646 17.5061 29.3701 17.7165 29.1248 17.9779C28.8795 18.2394 28.6883 18.5469 28.5621 18.8827C28.492 19.048 28.4748 19.231 28.5129 19.4064C28.551 19.5819 28.6426 19.7412 28.7749 19.8623C29.0444 20.1138 29.3639 20.3054 29.7124 20.4247C30.0589 20.5489 30.3925 20.7065 30.7086 20.8952C31.0064 21.0772 31.2382 21.3498 31.3702 21.6732C31.5023 21.9966 31.5276 22.3538 31.4425 22.6927C31.1979 23.6757 30.7844 24.6085 30.2206 25.4496C29.2262 27.1037 28.0484 28.6328 26.9054 30.1785C26.8485 30.2557 26.8045 30.3623 26.6265 30.3531C26.8265 29.7723 27.0173 29.2081 27.2136 28.642C27.6243 27.5134 27.8486 26.3252 27.8778 25.1242C27.8807 24.777 27.8236 24.4319 27.709 24.1042C27.6454 23.8802 27.5092 23.6838 27.3218 23.546C27.1345 23.4082 26.9066 23.3369 26.6742 23.3433C26.0232 23.3134 25.3831 23.5189 24.8707 23.9223C24.7437 23.9945 24.6348 24.0947 24.5522 24.2154C24.4696 24.3361 24.4156 24.4741 24.3942 24.6188C24.3728 24.7635 24.3846 24.9113 24.4287 25.0508C24.4728 25.1902 24.5481 25.3178 24.6488 25.4238C25.0542 25.9862 25.5184 26.5082 25.8578 27.1037C26.2072 27.6522 26.3994 28.2864 26.4133 28.937C26.4272 29.5875 26.2624 30.2294 25.9367 30.7924C25.2282 32.0514 24.2838 33.1616 23.1553 34.062C22.3476 34.7473 21.5049 35.3902 20.6308 35.9882V35.9882Z" fill="#090909"/>
<path d="M36.5097 4.44231C36.5626 5.87592 36.3595 7.30749 35.9097 8.6695C35.7574 8.38647 35.6547 8.16408 35.5281 7.9564C35.0621 7.18447 34.464 6.61472 33.4861 6.64964C32.8959 6.70442 32.3356 6.93485 31.8771 7.31129C30.9188 7.9639 30.1412 8.84915 29.6168 9.88436C28.9435 11.3547 29.582 12.496 31.169 12.825C31.9899 12.9715 32.836 12.8571 33.5889 12.4979L34.4585 12.1156C34.7851 11.9796 34.8254 12.0072 34.7759 12.3453C34.6285 13.1019 34.4028 13.8411 34.1026 14.5508C33.5981 15.8557 33.0587 17.1625 32.534 18.4693C32.5064 18.5207 32.4752 18.5722 32.4422 18.6218C32.3193 18.0616 32.0799 17.5337 31.7395 17.0724C31.5566 16.8353 31.3057 16.6598 31.0204 16.5694C30.7352 16.4791 30.4292 16.4782 30.1434 16.567C29.5915 16.7075 29.0865 16.9918 28.6798 17.3911C28.2732 17.7905 27.9793 18.2905 27.828 18.8405C27.6006 19.6106 28.0005 20.3586 28.8224 20.7997C29.2059 21.0037 29.6132 21.1673 30.0131 21.3511C30.7121 21.6782 30.8828 21.9962 30.6828 22.7626C30.4218 23.648 30.023 24.4865 29.5013 25.2475C29.2059 25.7432 28.8741 26.2162 28.5087 26.6627C28.5399 26.3484 28.5582 26.0323 28.6004 25.718C28.6721 25.1445 28.6202 24.5623 28.4482 24.0106C28.3607 23.6146 28.1407 23.2606 27.8246 23.0072C27.5086 22.7537 27.1155 22.6162 26.7107 22.6174C26.2476 22.5958 25.785 22.6701 25.3519 22.8358C24.9187 23.0015 24.5244 23.2551 24.1936 23.5805C23.9037 23.8437 23.7213 24.205 23.6813 24.5948C23.6414 24.9846 23.7467 25.3755 23.9771 25.6922C24.2725 26.1278 24.6192 26.5634 24.9495 26.9972C25.3842 27.504 25.6423 28.1389 25.6847 28.8058C25.727 29.4727 25.5514 30.1352 25.1843 30.6932C24.3874 31.9346 23.3641 33.0145 22.1681 33.8765C22.3516 33.1413 22.5204 32.4172 22.6415 31.6985C22.8418 30.7612 22.8524 29.7931 22.6727 28.8516C22.3241 27.3666 21.2343 26.8961 19.8253 27.3096C19.36 27.4525 18.9354 27.7045 18.5869 28.0448C18.255 28.3457 18.0273 28.7445 17.9366 29.1836C17.8459 29.6226 17.8969 30.0792 18.0823 30.4874C18.5194 31.4677 18.8604 32.4882 19.1006 33.5346C19.2071 34.032 19.2362 34.5428 19.1868 35.0491C19.1861 35.4132 19.0484 35.7638 18.8012 36.0308C18.554 36.2978 18.2155 36.4618 17.853 36.49C15.468 36.8116 13.1544 36.569 11.0905 35.2034C9.92545 34.437 9.53466 33.2791 9.69611 31.9209C9.92939 30.4098 10.5354 28.9808 11.4592 27.7636C13.3122 25.0912 15.2148 22.452 17.11 19.8017C17.138 19.7657 17.17 19.7331 17.2054 19.7043C17.831 18.9563 18.3704 18.1384 19.0052 17.3941C20.0473 16.1608 21.082 14.9294 22.1773 13.7403C22.6598 13.2183 23.1515 12.7 23.645 12.1818C24.2321 11.555 24.8614 10.9577 25.5017 10.3788C26.5071 9.45409 27.5598 8.58236 28.6555 7.76709C30.2169 6.53796 31.947 5.54075 33.7925 4.80621C34.537 4.49875 35.3378 4.3522 36.1427 4.37614C36.2748 4.37614 36.4051 4.34306 36.5097 4.44231Z" fill="#F7A247"/>
<path d="M12.2335 17.8735C12.9985 19.1784 13.7599 20.4851 14.5323 21.8176C14.5722 21.8799 14.5897 21.954 14.5816 22.0276C14.5736 22.1012 14.5407 22.1698 14.4882 22.222C13.3875 23.7732 12.2867 25.3231 11.1859 26.8719C10.2228 28.1575 9.51465 29.6162 9.09985 31.1689C8.98753 31.7213 8.94805 32.2861 8.98243 32.8488C8.50344 32.327 8.11578 31.728 7.83577 31.077C7.5939 30.6066 7.51055 30.0704 7.59819 29.5486C7.68583 29.0269 7.93975 28.5475 8.32196 28.1823C8.64997 27.8604 8.95641 27.5172 9.23929 27.1549C9.43802 26.9019 9.53634 26.5841 9.51534 26.2628C9.49434 25.9415 9.35551 25.6394 9.12554 25.4144C8.84762 25.0969 8.4969 24.8517 8.1035 24.6999C7.7101 24.5482 7.2858 24.4944 6.86707 24.5432C6.13321 24.6388 5.80664 25.17 5.61033 25.8096C5.46713 26.3929 5.42003 26.9957 5.4709 27.5942H5.41035C4.75023 26.5666 4.27231 25.4324 3.99767 24.2418C3.96669 24.1488 3.95459 24.0506 3.96208 23.9528C3.96957 23.8551 3.9965 23.7598 4.04129 23.6726C4.08608 23.5855 4.14782 23.5082 4.22288 23.4453C4.29793 23.3823 4.3848 23.3351 4.47835 23.3063H4.49302C4.87647 23.1446 5.28376 23.049 5.65803 22.8707C6.65425 22.4352 6.90927 21.564 6.36254 20.6193C6.07575 20.0764 5.61685 19.6445 5.0581 19.3916C4.79341 19.2645 4.49368 19.2306 4.20737 19.2953C3.92106 19.36 3.6649 19.5195 3.48029 19.7481C3.22586 20.0694 3.01944 20.426 2.86752 20.8068C2.66433 20.3309 2.5005 19.8392 2.37766 19.3364C1.99063 18.1654 1.68955 16.9675 1.47684 15.7525C1.47684 15.6312 1.40346 15.475 1.49886 15.3849C1.59426 15.2949 1.73003 15.4327 1.8346 15.4842C2.20153 15.668 2.55929 15.8812 2.9354 16.0502C3.56679 16.324 4.27665 16.3554 4.92967 16.1385C5.28476 16.0471 5.58914 15.8183 5.77593 15.5023C5.96273 15.1863 6.01667 14.8089 5.92589 14.4531C5.92589 14.4329 5.91488 14.4127 5.90755 14.3925C5.74153 13.7289 5.43556 13.1087 5.01023 12.5736C4.5849 12.0385 4.05008 11.6008 3.44176 11.2901C2.62901 10.8545 1.81993 11.1467 1.24017 11.9425C1.11542 12.1263 1.00167 12.3101 0.849391 12.5362C0.593026 11.432 0.526023 10.2921 0.651247 9.16543C0.654808 8.92612 0.709878 8.69041 0.812697 8.47437C1.03913 8.31103 1.3161 8.23352 1.59426 8.25566C2.62557 8.22655 3.63983 8.52365 4.49302 9.10478C5.86123 9.98477 7.08899 11.0666 8.13482 12.3138C9.25619 13.5963 10.2978 14.9466 11.2537 16.3572C11.5987 16.8461 11.8647 17.403 12.2335 17.8735Z" fill="#F6A146"/>
<path d="M36.5097 4.44227C35.2173 4.40903 33.938 4.70901 32.7945 5.31344C30.9418 6.19063 29.2092 7.30246 27.6391 8.62168C26.6484 9.41689 25.6938 10.2629 24.7752 11.1598C24.0725 11.8527 23.368 12.5493 22.6984 13.2679C21.578 14.4699 20.4944 15.7019 19.4474 16.964C18.7484 17.8039 18.0824 18.6695 17.4017 19.5187C17.3511 19.5967 17.2754 19.6551 17.1871 19.6841C17.7375 18.8129 18.3869 17.9656 18.9924 17.111C20.6057 14.8271 22.2189 12.5413 23.8322 10.2537C25.0853 8.51324 26.2411 6.67533 27.5749 4.98262C28.6369 3.53958 29.9754 2.32307 31.5121 1.4042C32.111 1.05424 32.778 0.837367 33.4678 0.768283C34.0154 0.695099 34.5715 0.810356 35.0452 1.09518C35.5188 1.38 35.8819 1.8175 36.0749 2.33602C36.3812 2.99474 36.53 3.71588 36.5097 4.44227V4.44227Z" fill="#DA8631"/>
<path d="M12.2335 17.8738C11.9243 17.5524 11.6624 17.1885 11.4556 16.7931C10.6594 15.5997 9.81052 14.4356 8.90909 13.301C8.20513 12.4227 7.44 11.5954 6.61944 10.8254C5.62123 9.80208 4.41396 9.00709 3.08038 8.4949C2.34889 8.24146 1.55738 8.21901 0.812744 8.43057C1.04208 7.43258 1.47689 6.57979 2.55017 6.32248C3.41979 6.11848 4.15916 6.45849 4.85817 6.91981C6.02513 7.74774 7.00525 8.81226 7.73491 10.0443C8.80635 11.669 9.68332 13.4168 10.6612 15.0912C11.1914 16.0138 11.7125 16.9548 12.2335 17.8738Z" fill="#DA8631"/>
<path d="M21.9113 24.0765C21.9064 24.2149 21.8497 24.3463 21.7525 24.4447C21.6553 24.5431 21.5247 24.6013 21.3866 24.6077C21.3174 24.6074 21.2489 24.5935 21.1851 24.5666C21.1213 24.5397 21.0634 24.5005 21.0148 24.4511C20.9662 24.4017 20.9278 24.3432 20.9019 24.2789C20.876 24.2146 20.863 24.1458 20.8637 24.0765V24.0765C20.8637 23.9439 20.9163 23.8168 21.0099 23.723C21.1035 23.6292 21.2304 23.5766 21.3628 23.5766C21.432 23.5731 21.5012 23.5834 21.5664 23.6069C21.6316 23.6304 21.6916 23.6666 21.7427 23.7134C21.7939 23.7603 21.8353 23.8168 21.8646 23.8797C21.8938 23.9427 21.9103 24.0108 21.9132 24.0802L21.9113 24.0765Z" fill="#DD8832"/>
<path d="M15.4111 30.0149C15.5424 30.0224 15.6658 30.0799 15.7562 30.1755C15.8466 30.2712 15.8971 30.3978 15.8973 30.5295C15.8953 30.5964 15.8801 30.6622 15.8527 30.7232C15.8252 30.7842 15.7861 30.8391 15.7374 30.885C15.6888 30.9308 15.6316 30.9666 15.5692 30.9903C15.5067 31.0139 15.4403 31.0251 15.3735 31.023C15.3068 31.021 15.2411 31.0058 15.1802 30.9783C15.1194 30.9508 15.0645 30.9116 15.0187 30.8629C14.973 30.8141 14.9373 30.7569 14.9136 30.6943C14.89 30.6318 14.8789 30.5652 14.8809 30.4983C14.883 30.4326 14.8981 30.368 14.9251 30.3082C14.9522 30.2484 14.9908 30.1945 15.0387 30.1496C15.0866 30.1047 15.1428 30.0697 15.2042 30.0466C15.2656 30.0235 15.3309 30.0127 15.3965 30.0149H15.4111Z" fill="#DD8832"/>
<path d="M25.3751 19.6141C25.3943 19.7279 25.3675 19.8446 25.3008 19.9387C25.2341 20.0328 25.1328 20.0965 25.0192 20.1158C24.9814 20.1204 24.9432 20.1204 24.9055 20.1158C24.8446 20.1208 24.7834 20.1138 24.7252 20.0951C24.6671 20.0764 24.6132 20.0463 24.5667 20.0067C24.5202 19.9671 24.4819 19.9187 24.4541 19.8642C24.4263 19.8098 24.4095 19.7504 24.4046 19.6894C24.4018 19.6576 24.4018 19.6256 24.4046 19.5938C24.407 19.4565 24.4628 19.3255 24.5601 19.2287C24.6574 19.1319 24.7885 19.077 24.9256 19.0756C25.21 19.07 25.3715 19.2612 25.3751 19.6141Z" fill="#DD8832"/>
<path d="M17.4183 24.6078C17.4323 24.7225 17.4004 24.8382 17.3296 24.9294C17.2588 25.0207 17.1548 25.0802 17.0403 25.0948C17.0116 25.0976 16.9828 25.0976 16.9541 25.0948C16.8973 25.1037 16.8394 25.1012 16.7835 25.0875C16.7277 25.0738 16.6752 25.0491 16.629 25.0149C16.5827 24.9807 16.5437 24.9377 16.5142 24.8883C16.4847 24.839 16.4652 24.7842 16.4569 24.7273C16.4459 24.6733 16.4459 24.6177 16.4569 24.5637C16.4573 24.4404 16.5011 24.3211 16.5807 24.227C16.6602 24.1328 16.7704 24.0698 16.8917 24.0491C16.9613 24.0503 17.0301 24.0652 17.0939 24.093C17.1578 24.1208 17.2156 24.1609 17.264 24.2111C17.3124 24.2613 17.3504 24.3205 17.3759 24.3854C17.4015 24.4504 17.414 24.5197 17.4128 24.5894L17.4183 24.6078Z" fill="#DD8832"/>
<path d="M24.3624 16.2231C24.2303 16.2184 24.1048 16.1645 24.0102 16.0721C23.9155 15.9797 23.8586 15.8554 23.8505 15.7232C23.8709 15.5869 23.9416 15.4631 24.0485 15.3764C24.1555 15.2896 24.2911 15.2461 24.4284 15.2546C24.4918 15.245 24.5565 15.2505 24.6172 15.2708C24.678 15.2911 24.7331 15.3255 24.778 15.3712C24.8229 15.417 24.8564 15.4727 24.8757 15.5339C24.895 15.5951 24.8995 15.66 24.8889 15.7232C24.8955 15.8479 24.8524 15.9702 24.7692 16.0632C24.686 16.1561 24.5694 16.2123 24.445 16.2195C24.4175 16.2225 24.39 16.2238 24.3624 16.2231V16.2231Z" fill="#DD8832"/>
<path d="M9.5402 17.8737C9.53315 18.0054 9.47593 18.1293 9.38034 18.2199C9.28476 18.3105 9.1581 18.361 9.02649 18.3608C8.92362 18.3622 8.82262 18.3331 8.73623 18.2771C8.64985 18.2211 8.58194 18.1407 8.54108 18.0462C8.50022 17.9516 8.48823 17.847 8.50662 17.7456C8.52502 17.6441 8.57297 17.5505 8.64443 17.4763C8.7159 17.4022 8.80768 17.3509 8.90821 17.3289C9.00873 17.3069 9.1135 17.3153 9.2093 17.3528C9.3051 17.3904 9.38765 17.4556 9.44654 17.5401C9.50543 17.6246 9.53801 17.7247 9.5402 17.8278V17.8737Z" fill="#DD8832"/>
<path d="M9.02649 24.0545C8.89525 24.0607 8.76672 24.0157 8.66787 23.929C8.56901 23.8423 8.50752 23.7206 8.49628 23.5895C8.49724 23.4588 8.54961 23.3338 8.642 23.2416C8.7344 23.1494 8.85937 23.0974 8.9898 23.0969H9.01732C9.14098 23.0901 9.26255 23.131 9.35706 23.2111C9.45156 23.2913 9.51182 23.4047 9.52545 23.528C9.53907 23.6513 9.50503 23.7752 9.43031 23.8741C9.3556 23.9731 9.24589 24.0396 9.12373 24.06C9.09122 24.0623 9.05854 24.0605 9.02649 24.0545V24.0545Z" fill="#DD8832"/>
<path d="M70.3518 17.2415C70.6061 16.4074 70.7378 15.5406 70.7426 14.6685C70.7343 13.0756 70.2733 11.518 69.4136 10.178C68.5539 8.83798 67.331 7.77096 65.8881 7.10177C64.8 6.59086 63.613 6.32607 62.4114 6.32617H50.4164V33.0292H66.5614C68.7684 33.0263 70.8843 32.1469 72.4453 30.5839C74.0063 29.0208 74.885 26.9016 74.8889 24.6906C74.8803 23.153 74.4533 21.6469 73.6538 20.3343C72.8544 19.0218 71.7127 17.9525 70.3518 17.2415V17.2415ZM64.0901 14.6685C64.0896 15.1119 63.9136 15.537 63.6006 15.8506C63.2876 16.1641 62.8632 16.3405 62.4206 16.341H57.0835V13.0015H62.4169C62.8607 13.0015 63.2862 13.1781 63.6 13.4924C63.9138 13.8068 64.0901 14.2331 64.0901 14.6776V14.6685ZM66.5797 26.3539H57.0835V23.0144H66.5797C67.023 22.9918 67.4571 23.1464 67.7866 23.4444C68.116 23.7424 68.3138 24.1592 68.3364 24.6033C68.359 25.0474 68.2047 25.4822 67.9072 25.8123C67.6098 26.1423 67.1936 26.3404 66.7504 26.3631C66.6935 26.3668 66.6365 26.3668 66.5797 26.3631V26.3539Z" fill="#F7A247"/>
<path d="M62.4169 6.33524C64.62 6.35064 66.7284 7.23405 68.2864 8.79447C69.8444 10.3549 70.7268 12.4669 70.7426 14.6738C70.7374 15.546 70.6058 16.4127 70.3518 17.2469C71.717 17.9544 72.863 19.0224 73.666 20.3354C74.4689 21.6483 74.8982 23.1563 74.9073 24.696C74.9039 26.9071 74.0253 29.0266 72.4642 30.5898C70.9032 32.153 68.787 33.0322 66.5798 33.0346H50.4164V6.33524H62.4041H62.4169ZM57.0671 16.3574H62.4041C62.8474 16.3798 63.2814 16.2249 63.6106 15.9268C63.9399 15.6286 64.1375 15.2116 64.1599 14.7676C64.1822 14.3235 64.0276 13.8887 63.73 13.5589C63.4324 13.229 63.0162 13.0311 62.5729 13.0087H57.0799V16.3574H57.0671ZM57.0799 26.3703H66.5798C67.023 26.393 67.4572 26.2383 67.7866 25.9404C68.116 25.6424 68.3138 25.2255 68.3365 24.7814C68.3591 24.3374 68.2047 23.9025 67.9072 23.5725C67.6098 23.2425 67.1937 23.0443 66.7504 23.0216C66.6941 23.0216 66.6373 23.0216 66.5798 23.0216H57.0799V26.3703ZM62.4169 5.37769H50.4164C50.164 5.3772 49.9217 5.47692 49.7426 5.65501C49.5634 5.8331 49.462 6.07505 49.4606 6.32789V33.0291C49.4611 33.2817 49.5616 33.5239 49.7401 33.7024C49.9186 33.8809 50.1605 33.9811 50.4128 33.9811H66.5669C69.0273 33.9787 71.3864 32.9989 73.1266 31.2565C74.8669 29.5142 75.8464 27.1516 75.8503 24.6868C75.839 23.1026 75.4298 21.5467 74.6603 20.1626C73.8907 18.7785 72.7857 17.6109 71.4471 16.7672C71.6035 16.0785 71.6835 15.3746 71.6856 14.6683C71.6698 12.2102 70.6883 9.85709 68.9537 8.11835C67.2191 6.3796 64.8707 5.39503 62.4169 5.37769V5.37769ZM58.0358 13.9552H62.4169C62.513 13.9437 62.6104 13.9518 62.7032 13.979C62.7961 14.0062 62.8825 14.0519 62.9573 14.1134C63.0321 14.1749 63.0936 14.2509 63.1383 14.3369C63.183 14.4228 63.2099 14.517 63.2173 14.6136C63.2247 14.7102 63.2126 14.8074 63.1816 14.8992C63.1505 14.991 63.1013 15.0755 63.0368 15.1478C62.9723 15.22 62.8939 15.2785 62.8063 15.3196C62.7187 15.3607 62.6237 15.3836 62.527 15.387C62.4904 15.3906 62.4535 15.3906 62.4169 15.387H58.0358V13.9552ZM58.0358 23.9682H66.5798C66.6757 23.9568 66.7729 23.9649 66.8656 23.9921C66.9584 24.0193 67.0446 24.065 67.1193 24.1264C67.1939 24.1878 67.2555 24.2637 67.3001 24.3495C67.3448 24.4353 67.3717 24.5292 67.3793 24.6257C67.3868 24.7222 67.3748 24.8192 67.344 24.9109C67.3132 25.0026 67.2642 25.0872 67.2 25.1595C67.1358 25.2318 67.0577 25.2903 66.9704 25.3317C66.883 25.373 66.7882 25.3962 66.6917 25.3999C66.6545 25.4036 66.617 25.4036 66.5798 25.3999H58.0358V23.9682Z" fill="#231F20"/>
<path d="M96.1196 9.52766L94.7895 6.33521H87.5352L86.5849 8.62157L76.4355 33.029H83.6604L85.1557 29.4286H97.18L98.7046 33.029H105.889L96.1196 9.52766ZM87.8802 22.836L91.1532 15.0304L94.4262 22.836H87.8802Z" fill="#F7A247"/>
<path d="M94.7894 6.33512L105.889 33.029H98.7046L97.1745 29.4285H85.1501L83.6604 33.029H76.4318L87.5315 6.33512H94.7894V6.33512ZM87.8801 22.8359H94.4298L91.1605 15.0303L87.8801 22.8359ZM94.7821 5.37573H87.5315C87.3454 5.37929 87.1643 5.4367 87.01 5.54106C86.8557 5.64541 86.7348 5.79225 86.6619 5.96386L75.5494 32.6761C75.4931 32.8195 75.4724 32.9745 75.4888 33.1277C75.5053 33.281 75.5585 33.4279 75.6439 33.5561C75.7293 33.6843 75.8444 33.7899 75.9794 33.8639C76.1144 33.9378 76.2652 33.978 76.419 33.981H83.6421C83.8284 33.9792 84.0101 33.9227 84.1646 33.8185C84.3192 33.7143 84.4399 33.5669 84.5117 33.3947L85.7629 30.3805H96.514L97.8185 33.3984C97.8918 33.5692 98.0129 33.7152 98.1672 33.8186C98.3216 33.922 98.5025 33.9784 98.6881 33.981H105.871C106.028 33.9796 106.183 33.9395 106.321 33.8644C106.459 33.7893 106.577 33.6814 106.664 33.5501C106.751 33.4188 106.805 33.2682 106.82 33.1113C106.836 32.9545 106.813 32.7962 106.753 32.6504L95.6719 5.9657C95.6004 5.79312 95.4799 5.64537 95.3253 5.54082C95.1707 5.43626 94.9888 5.37949 94.8023 5.37757L94.7821 5.37573ZM89.3258 21.871L91.1605 17.4949L93.0172 21.871H89.3258Z" fill="#231F20"/>
<path d="M132.89 6.3351L126.006 13.8025L122.964 17.0924C121.544 15.5424 120.118 13.9986 118.684 12.4609C116.794 10.4281 114.911 8.38438 113.033 6.32959H108.344V33.0289H115.033V18.3091L118.414 22.018H118.449L121.018 24.7951H124.929L131.086 18.1308V33.0289H137.741V6.3351H132.89Z" fill="#F7A247"/>
<path d="M137.731 6.33528V33.0291H131.077V18.131L124.924 24.7953H121.012L118.444 22.0182H118.409L115.033 18.3093V33.0291H108.344V6.33528H113.042C116.317 9.93575 119.656 13.4976 122.968 17.0926L132.89 6.32977H137.731V6.33528ZM137.731 5.37222H132.89C132.757 5.37486 132.626 5.40515 132.506 5.46116C132.386 5.51717 132.278 5.59767 132.191 5.69753L122.968 15.6958C121.878 14.5122 120.796 13.3285 119.713 12.178C117.748 10.0368 115.719 7.86075 113.749 5.68282C113.66 5.58381 113.551 5.50477 113.43 5.45091C113.309 5.39705 113.177 5.36961 113.044 5.37038H108.344C108.09 5.37038 107.847 5.47126 107.668 5.65084C107.489 5.83041 107.388 6.07397 107.388 6.32793V33.0291C107.388 33.2831 107.489 33.5266 107.668 33.7062C107.847 33.8858 108.09 33.9867 108.344 33.9867H115.033C115.158 33.9872 115.282 33.963 115.398 33.9155C115.513 33.868 115.619 33.7981 115.707 33.7099C115.796 33.6217 115.867 33.5168 115.915 33.4012C115.963 33.2857 115.988 33.1617 115.989 33.0365V20.7776L117.706 22.6615C117.757 22.7179 117.815 22.7678 117.879 22.8103L120.31 25.422C120.398 25.52 120.506 25.5982 120.626 25.6514C120.747 25.7046 120.877 25.7317 121.009 25.7308H124.92C125.051 25.7317 125.181 25.7052 125.301 25.653C125.422 25.6008 125.53 25.524 125.619 25.4275L130.121 20.5846V33.0365C130.121 33.2893 130.22 33.532 130.398 33.7115C130.576 33.891 130.817 33.9926 131.07 33.994H137.731C137.985 33.994 138.228 33.8931 138.407 33.7136C138.587 33.534 138.687 33.2904 138.687 33.0365V6.33528C138.687 6.08132 138.587 5.83777 138.407 5.65819C138.228 5.47861 137.985 5.37773 137.731 5.37773V5.37222Z" fill="#231F20"/>
<path d="M141.43 14.6389V33.029H148.035V14.6389H141.43ZM141.43 6.33521V13.0013H148.035V6.33521H141.43Z" fill="#F7A247"/>
<path d="M148.044 6.33525V13.0014H141.439V6.33525H148.044ZM148.044 14.6389V33.0291H141.439V14.6389H148.044ZM148.044 5.37769H141.439C141.314 5.37721 141.19 5.4014 141.075 5.44889C140.959 5.49638 140.854 5.56624 140.765 5.65448C140.676 5.74271 140.606 5.84759 140.557 5.96314C140.509 6.07868 140.484 6.20263 140.483 6.32789V13.0014C140.483 13.166 140.525 13.3279 140.606 13.4713C140.687 13.6146 140.803 13.7345 140.944 13.8192C140.803 13.9043 140.687 14.0246 140.606 14.1683C140.525 14.3119 140.483 14.4741 140.483 14.6389V33.0291C140.482 33.2817 140.582 33.5245 140.759 33.704C140.937 33.8835 141.178 33.9852 141.43 33.9866H148.053C148.178 33.9871 148.302 33.9629 148.418 33.9154C148.534 33.8679 148.639 33.7981 148.728 33.7098C148.816 33.6216 148.887 33.5167 148.935 33.4012C148.984 33.2856 149.009 33.1617 149.009 33.0364V14.6389C149.01 14.4741 148.967 14.3119 148.887 14.1683C148.806 14.0246 148.69 13.9043 148.549 13.8192C148.69 13.7345 148.806 13.6146 148.887 13.4713C148.967 13.3279 149.01 13.166 149.009 13.0014V6.33525C149.01 6.20967 148.985 6.08524 148.938 5.96908C148.89 5.85293 148.82 5.74734 148.732 5.65837C148.643 5.56941 148.538 5.49882 148.422 5.45065C148.306 5.40249 148.182 5.37769 148.057 5.37769H148.044Z" fill="#231F20"/>
<path d="M62.4169 6.33521C63.6217 6.33375 64.8119 6.59858 65.9028 7.11081C56.6286 6.55944 50.4256 6.33521 50.4256 6.33521H62.4169Z" fill="#DA8631"/>
<path d="M94.7894 6.33521L96.1195 9.52766C92.9034 9.19683 89.6983 8.89542 86.5793 8.62157L87.5297 6.33521H94.7894Z" fill="#DA8631"/>
<path d="M113.043 6.33521C114.905 8.38877 116.788 10.4325 118.691 12.4665C115.363 11.9151 111.89 11.4115 108.353 10.9502V6.33521H113.043Z" fill="#DA8631"/>
<path d="M132.89 6.33521H137.731V16.7856C133.878 15.5669 129.958 14.5721 125.99 13.8063L132.89 6.33521Z" fill="#DA8631"/>
<path d="M148.05 6.33521H141.43V13.0013H148.05V6.33521Z" fill="#DA8631"/>
<path d="M141.43 14.6389H148.035V23.8285C147.727 21.7038 145.307 19.8181 141.43 18.1677V14.6389Z" fill="#DA8631"/>
<path d="M53.8894 19.6932C54.3069 19.6932 54.6453 19.3541 54.6453 18.9359C54.6453 18.5177 54.3069 18.1787 53.8894 18.1787C53.472 18.1787 53.1335 18.5177 53.1335 18.9359C53.1335 19.3541 53.472 19.6932 53.8894 19.6932Z" fill="#DA8631"/>
<path d="M54.7976 29.4839C55.215 29.4839 55.5535 29.1449 55.5535 28.7267C55.5535 28.3085 55.215 27.9695 54.7976 27.9695C54.3801 27.9695 54.0417 28.3085 54.0417 28.7267C54.0417 29.1449 54.3801 29.4839 54.7976 29.4839Z" fill="#DA8631"/>
<path d="M70.5995 26.7378C71.017 26.7378 71.3554 26.3988 71.3554 25.9806C71.3554 25.5624 71.017 25.2234 70.5995 25.2234C70.182 25.2234 69.8436 25.5624 69.8436 25.9806C69.8436 26.3988 70.182 26.7378 70.5995 26.7378Z" fill="#DA8631"/>
<path d="M68.3961 23.1282C68.8135 23.1282 69.152 22.7892 69.152 22.371C69.152 21.9528 68.8135 21.6138 68.3961 21.6138C67.9786 21.6138 67.6402 21.9528 67.6402 22.371C67.6402 22.7892 67.9786 23.1282 68.3961 23.1282Z" fill="#DA8631"/>
<path d="M81.1121 30.1582C81.5295 30.1582 81.868 29.8192 81.868 29.401C81.868 28.9828 81.5295 28.6438 81.1121 28.6438C80.6946 28.6438 80.3562 28.9828 80.3562 29.401C80.3562 29.8192 80.6946 30.1582 81.1121 30.1582Z" fill="#DA8631"/>
<path d="M84.541 21.6118C84.9585 21.6118 85.2969 21.2728 85.2969 20.8546C85.2969 20.4364 84.9585 20.0974 84.541 20.0974C84.1236 20.0974 83.7852 20.4364 83.7852 20.8546C83.7852 21.2728 84.1236 21.6118 84.541 21.6118Z" fill="#DA8631"/>
<path d="M92.7512 27.1201C93.1686 27.1201 93.5071 26.7811 93.5071 26.3629C93.5071 25.9447 93.1686 25.6057 92.7512 25.6057C92.3337 25.6057 91.9953 25.9447 91.9953 26.3629C91.9953 26.7811 92.3337 27.1201 92.7512 27.1201Z" fill="#DA8631"/>
<path d="M98.8753 22.836C99.2927 22.836 99.6311 22.497 99.6311 22.0788C99.6311 21.6606 99.2927 21.3215 98.8753 21.3215C98.4578 21.3215 98.1194 21.6606 98.1194 22.0788C98.1194 22.497 98.4578 22.836 98.8753 22.836Z" fill="#DA8631"/>
<path d="M112.19 30.3446C112.349 29.9582 112.166 29.5153 111.781 29.3552C111.395 29.1952 110.953 29.3787 110.793 29.765C110.633 30.1514 110.816 30.5943 111.202 30.7544C111.588 30.9144 112.03 30.7309 112.19 30.3446Z" fill="#DA8631"/>
<path d="M124.524 20.2151C124.941 20.2151 125.28 19.8761 125.28 19.4579C125.28 19.0397 124.941 18.7007 124.524 18.7007C124.106 18.7007 123.768 19.0397 123.768 19.4579C123.768 19.8761 124.106 20.2151 124.524 20.2151Z" fill="#DA8631"/>
<path d="M134.633 26.7378C135.05 26.7378 135.389 26.3988 135.389 25.9806C135.389 25.5624 135.05 25.2234 134.633 25.2234C134.215 25.2234 133.877 25.5624 133.877 25.9806C133.877 26.3988 134.215 26.7378 134.633 26.7378Z" fill="#DA8631"/>
<path d="M142.7 27.282C143.117 27.282 143.456 26.943 143.456 26.5248C143.456 26.1066 143.117 25.7676 142.7 25.7676C142.282 25.7676 141.944 26.1066 141.944 26.5248C141.944 26.943 142.282 27.282 142.7 27.282Z" fill="#DA8631"/>
<path d="M145.072 30.8125C145.489 30.8125 145.828 30.4735 145.828 30.0553C145.828 29.6371 145.489 29.2981 145.072 29.2981C144.655 29.2981 144.316 29.6371 144.316 30.0553C144.316 30.4735 144.655 30.8125 145.072 30.8125Z" fill="#DA8631"/>
</g>
<defs>
<clipPath id="clip0_2707_28721">
<rect width="149" height="37.3537" fill="white"/>
</clipPath>
</defs>
</svg>
